<svg id="Group_82" data-name="Group 82" xmlns="http://www.w3.org/2000/svg" width="32" height="32" viewBox="0 0 32 32">
  <path id="Path_254" data-name="Path 254" d="M0,0H32V32H0Z" fill="none"/>
  <path id="Path_255" data-name="Path 255" d="M18.889,26.111h7.222V5.889H5.889V26.111H16V18.889H13.111V16H16V13.611a6.308,6.308,0,0,1,.578-3.338,3.938,3.938,0,0,1,1.641-1.639,5.724,5.724,0,0,1,2.437-.55A9.327,9.327,0,0,1,22.5,8.2v2.744h-.724a5.238,5.238,0,0,0-2.2.237,1.05,1.05,0,0,0-.454.454c-.173.326-.237.65-.237,1.976V16H22.5l-.722,2.889H18.889ZM4.444,3H27.556A1.444,1.444,0,0,1,29,4.444V27.556A1.444,1.444,0,0,1,27.556,29H4.444A1.444,1.444,0,0,1,3,27.556V4.444A1.444,1.444,0,0,1,4.444,3Z" transform="translate(0 0)"/>
</svg>
