<svg id="Group_79" data-name="Group 79" xmlns="http://www.w3.org/2000/svg" width="32" height="32" viewBox="0 0 32 32">
  <path id="Path_248" data-name="Path 248" d="M0,0H32V32H0Z" fill="none"/>
  <path id="Path_249" data-name="Path 249" d="M16,27.859l7.15-6.773a9.224,9.224,0,0,0,0-13.544,10.514,10.514,0,0,0-14.3,0,9.224,9.224,0,0,0,0,13.544Zm0,3.869L6.808,23.021a11.859,11.859,0,0,1,0-17.414,13.518,13.518,0,0,1,18.385,0,11.859,11.859,0,0,1,0,17.414ZM16,17.05a2.816,2.816,0,0,0,2.889-2.736,2.893,2.893,0,0,0-5.778,0A2.816,2.816,0,0,0,16,17.05Zm0,2.736a5.631,5.631,0,0,1-5.778-5.473A5.631,5.631,0,0,1,16,8.841a5.631,5.631,0,0,1,5.778,5.473A5.631,5.631,0,0,1,16,19.786Z" transform="translate(0)"/>
</svg>
