<svg id="Group_1" data-name="Group 1" xmlns="http://www.w3.org/2000/svg" width="307.273" height="39" viewBox="0 0 307.273 39">
  <path id="Path_1" data-name="Path 1" d="M267.956,93.146,257.85,67.58h7.4l6.358,16.084,6.358-16.084h7.4l-10.1,25.566Z" transform="translate(-207.358 -59.094)"/>
  <path id="Path_2" data-name="Path 2" d="M408.184,77.558V91.786H401.07V66.265h7.114v2.848a9.959,9.959,0,0,1,7.261-3.272,9,9,0,0,1,6.761,2.846,10.517,10.517,0,0,1,2.728,7.592V91.793h-7.114V77.369q0-5.882-4.317-5.885a5.184,5.184,0,0,0-3.726,1.543A6.012,6.012,0,0,0,408.184,77.558Z" transform="translate(-318.657 -57.74)"/>
  <path id="Path_3" data-name="Path 3" d="M546.317,58.652a10.932,10.932,0,0,1-8.09-3.719,12.82,12.82,0,0,1-3.557-9.228,12.307,12.307,0,0,1,3.466-9.022,11.022,11.022,0,0,1,8.112-3.511,9.888,9.888,0,0,1,7.592,3.166V24.22h7.114V58.285H553.84V55.026A9.35,9.35,0,0,1,546.317,58.652ZM541.833,45.98a6.72,6.72,0,0,0,1.852,4.889A5.872,5.872,0,0,0,548,52.782a5.468,5.468,0,0,0,4.2-1.906,7.024,7.024,0,0,0,1.732-4.913,7.352,7.352,0,0,0-1.732-5,5.438,5.438,0,0,0-4.248-2,5.586,5.586,0,0,0-4.315,2.022A7.258,7.258,0,0,0,541.833,45.98Z" transform="translate(-422.476 -24.22)"/>
  <path id="Path_4" data-name="Path 4" d="M700.307,72.49a5.4,5.4,0,0,0-4.746,2.254A10.156,10.156,0,0,0,694,80.7V91.754H686.89V66.226H694V69.6a11.923,11.923,0,0,1,3.441-2.668,9.306,9.306,0,0,1,4.2-1.138l.049,6.689Z" transform="translate(-540.781 -57.702)"/>
  <path id="Path_5" data-name="Path 5" d="M796.867,79.069a12.612,12.612,0,0,1-3.844,9.348,14.183,14.183,0,0,1-19.312,0,13.311,13.311,0,0,1,0-18.71,14.135,14.135,0,0,1,19.308-.013A12.721,12.721,0,0,1,796.867,79.069Zm-19.835,0a7.318,7.318,0,0,0,1.778,5.1,6.247,6.247,0,0,0,9.113.007,8.22,8.22,0,0,0,0-10.213,6.2,6.2,0,0,0-9.115,0A7.349,7.349,0,0,0,777.033,79.069Z" transform="translate(-605.249 -57.779)"/>
  <path id="Path_6" data-name="Path 6" d="M904.676,153.434a4.237,4.237,0,1,1,2.966,1.209A4.035,4.035,0,0,1,904.676,153.434Z" transform="translate(-709.049 -120.211)" fill="#fdd939"/>
  <path id="Path_7" data-name="Path 7" d="M975.888,85.856q3.557,0,6.4-3.557l4.224,4.746q-4.935,5.113-10.671,5.113a13.891,13.891,0,0,1-9.7-3.613,12.246,12.246,0,0,1-3.962-9.491,12.372,12.372,0,0,1,4-9.537,13.608,13.608,0,0,1,9.519-3.684,14.8,14.8,0,0,1,5.571,1.147,14.083,14.083,0,0,1,4.96,3.368l-3.7,4.84a8.449,8.449,0,0,0-3.012-2.279,8.541,8.541,0,0,0-3.537-.816,6.937,6.937,0,0,0-4.815,1.825,7.371,7.371,0,0,0,0,10.131A6.859,6.859,0,0,0,975.888,85.856Z" transform="translate(-754.698 -57.735)"/>
  <path id="Path_8" data-name="Path 8" d="M1110.807,79.069a12.615,12.615,0,0,1-3.842,9.348,14.182,14.182,0,0,1-19.312,0,13.305,13.305,0,0,1,0-18.71,14.122,14.122,0,0,1,19.312,0A12.676,12.676,0,0,1,1110.807,79.069Zm-19.832,0a7.318,7.318,0,0,0,1.778,5.1,6.252,6.252,0,0,0,9.11,0,8.221,8.221,0,0,0,0-10.213,6.2,6.2,0,0,0-9.115,0,7.357,7.357,0,0,0-1.783,5.113Z" transform="translate(-849.091 -57.779)"/>
  <path id="Path_9" data-name="Path 9" d="M1252.839,78.018V91.776h-7.163V77.826a8.365,8.365,0,0,0-.927-4.46,3.293,3.293,0,0,0-2.981-1.425,5.113,5.113,0,0,0-3.655,1.543,6.053,6.053,0,0,0-1.59,4.533V91.776h-7.114V66.248h7.114v2.89a8.8,8.8,0,0,1,6.739-3.319,7.307,7.307,0,0,1,4.388,1.423,9.234,9.234,0,0,1,2.965,3.464,10.032,10.032,0,0,1,3.964-3.608,10.848,10.848,0,0,1,5-1.278,9.982,9.982,0,0,1,7.259,2.668q2.75,2.668,2.752,7.759V91.761h-7.163V77.826q0-5.882-4.319-5.885a5.1,5.1,0,0,0-3.7,1.543A6.077,6.077,0,0,0,1252.839,78.018Z" transform="translate(-962.322 -57.724)"/>
  <path id="Path_10" data-name="Path 10" d="M75.165,55.645l-.6-2.147L53.246,59.05a5.933,5.933,0,0,0-5.471-3.562c-.153,0-.3.032-.445.043L40.923,33.362l-8.539-4.3L31.33,31.034,39,34.892,45.12,56.126a5.673,5.673,0,0,0-2.96,6.884,5.926,5.926,0,0,0,6.55,3.9A5.792,5.792,0,0,0,53.7,61.237h0ZM47.774,64.761a3.527,3.527,0,1,1,3.63-3.524A3.58,3.58,0,0,1,47.774,64.761Z" transform="translate(-31.33 -27.984)"/>
  <g id="Group_64" data-name="Group 64">
    <rect id="Rectangle_1" data-name="Rectangle 1" width="20.862" height="18.59" transform="matrix(0.965, -0.261, 0.261, 0.965, 15.809, 9.118)" fill="#fdd939"/>
    <path id="Path_11" data-name="Path 11" d="M101.561,60.622,96.11,40.462l22.351-6.042,5.451,20.159ZM98.922,42.076l4.253,15.733L121.1,52.965l-4.253-15.733Z" transform="translate(-81.708 -32.152)"/>
  </g>
</svg>
