<svg id="Group_80" data-name="Group 80" xmlns="http://www.w3.org/2000/svg" width="32" height="32" viewBox="0 0 32 32">
  <path id="Path_250" data-name="Path 250" d="M0,0H32V32H0Z" fill="none"/>
  <path id="Path_251" data-name="Path 251" d="M12.2,14.1A15.248,15.248,0,0,0,17.9,19.8l1.277-1.788a1.444,1.444,0,0,1,1.869-.428,16.5,16.5,0,0,0,6.62,1.97A1.444,1.444,0,0,1,29,21v6.445a1.445,1.445,0,0,1-1.3,1.437A22.4,22.4,0,0,1,3.118,4.3,1.444,1.444,0,0,1,4.556,3H11a1.444,1.444,0,0,1,1.44,1.331,16.5,16.5,0,0,0,1.97,6.62,1.444,1.444,0,0,1-.428,1.869L12.2,14.1Zm-3.643-.949,2.744-1.96a19.37,19.37,0,0,1-1.585-5.3H5.9c-.009.24-.013.481-.013.722a19.5,19.5,0,0,0,19.5,19.5c.241,0,.482,0,.722-.014V22.288a19.37,19.37,0,0,1-5.3-1.585l-1.96,2.744a17.972,17.972,0,0,1-2.294-1.083l-.084-.048a18.136,18.136,0,0,1-6.792-6.792l-.048-.084a17.972,17.972,0,0,1-1.083-2.294Z" transform="translate(0 0)"/>
</svg>
